<svg id="SvgjsSvg1001" width="288" height="288" xmlns="http://www.w3.org/2000/svg" version="1.1" xmlns:xlink="http://www.w3.org/1999/xlink" xmlns:svgjs="http://svgjs.com/svgjs"><defs id="SvgjsDefs1002"></defs><g id="SvgjsG1008" transform="matrix(0.9167,0,0,0.9167,11.995199682235722,11.995199602794656)"><svg xmlns="http://www.w3.org/2000/svg" enable-background="new 0 0 1000 1000" viewBox="0 0 1000 1000" width="288" height="288"><path d="M500,10c-216.9,0-393.4,176.5-393.4,393.4c0,32.2,4.3,65,12.7,97.8c0.2,2.2,0.7,4.4,1.5,6.6c2.5,6.9,24.6,68.1,39.9,93.9c78.3,148.8,185.6,276.2,319,378.7c2.4,2.8,5.5,5.2,8.9,6.9c3.2,1.6,6.7,2.5,10.2,2.6c0.7,0.1,1.3,0.1,2,0.1c4.2,0,8.6-1,12.5-2.9c3-1.5,5.7-3.6,7.9-6.1C819.8,752.4,878,512.8,880.1,503.4c8.8-33.6,13.3-67.2,13.3-100C893.5,186.5,717,10,500,10z M289.3,219.4l195-40.2c5.3-1.1,11.8,1.8,14.6,6.5L610,376.4c2,3.5,1.6,18.2-0.8,26.6c-10.1,2.2-20.3,4.5-30.2,6.8c-24.1,5.7-48.9,11.5-73.9,14.5c-5.9,0.7-12.2,1.1-18.6,1.1c-28.2,0-56.7-6.6-86.8-13.6c-16.7-3.9-33.8-7.7-51.1-10.5l135.3-81.6c4.6-2.8,6.6-9.1,4.4-14l-24.7-55.7c-2.2-4.9-8.3-8.1-13.6-7.1L304,271.8c-5.3,1.1-10.8-2.3-12.3-7.5l-9.4-33.4C280.8,225.6,284,220.5,289.3,219.4z M486.5,452.1c7.2,0,14.5-0.4,21.8-1.2c61.9-7.3,118.7-30.5,174-30.4c35.5,0,70.5,9.6,105.8,39c9.6,8,0.8,20.4-9.3,20.4c-2.7,0-5.5-0.9-8.1-3c-29.7-24.7-58.9-32.9-88.4-32.9c-58.3,0-117.2,32.2-180.9,32.2c-2.1,0-4.2,0-6.3-0.1c-58.6-2-122.1-28.4-181.5-28.4c-29.7,0-58.4,6.6-85,26.2c-2.2,1.6-4.4,2.3-6.5,2.3c-9.8,0-16.3-15.9-5.9-23.5c29.1-21.5,58.6-28.6,88.4-28.6c1.9,0,3.9,0.3,5.8,0.3c29,0.9,58.4,7.8,88,14.7C427.6,445.6,456.9,452.1,486.5,452.1z M770.7,543.5c-29.7-24.7-58.9-32.9-88.3-32.9c-58.3,0-117.2,32.2-180.9,32.2c-2.1,0-4.2,0-6.3-0.1c-58.6-2-122.1-28.4-181.5-28.4c-29.7,0-58.4,6.6-85,26.2c-2.2,1.6-4.4,2.3-6.5,2.3c-9.8,0-16.3-15.9-5.9-23.5c29.1-21.5,58.6-28.6,88.4-28.6c59.3,0,120,28.2,181.8,28.2c7.2,0,14.5-0.4,21.8-1.2c61.9-7.3,118.7-30.5,174-30.5c35.5,0,70.5,9.6,105.8,38.9c9.6,8,0.8,20.4-9.3,20.4C776,546.6,773.2,545.6,770.7,543.5z M660.7,368.5c-33.4,0-60.5-27.1-60.5-60.5c0-33.4,27.1-60.5,60.5-60.5c33.4,0,60.5,27.1,60.5,60.5C721.3,341.5,694.2,368.5,660.7,368.5z" fill="#ff5959" class="color000 svgShape"></path></svg></g></svg>