<svg id="SvgjsSvg1001" width="288" height="288" xmlns="http://www.w3.org/2000/svg" version="1.1" xmlns:xlink="http://www.w3.org/1999/xlink" xmlns:svgjs="http://svgjs.com/svgjs"><defs id="SvgjsDefs1002"></defs><g id="SvgjsG1008" transform="matrix(0.9167,0,0,0.9167,11.995270225906381,11.99525155725479)"><svg xmlns="http://www.w3.org/2000/svg" enable-background="new 0 0 1000 1000" viewBox="0 0 1000 1000" width="288" height="288"><path d="M4630.9,5002.7c-1122.4-109.4-2160.3-757.8-2762.7-1730.5c-448.9-721.4-644.6-1665.3-495-2382.9c222.6-1070.5,1178-2682.1,2745.5-4633.3c433.6-539.1,855.7-1036,880.6-1036c23,0,558.3,629.3,920.9,1084C7466.6-1764,8439.3-108.3,8633.1,918.1c90.2,472,38.4,1034.1-143.9,1582.8C7946.2,4135.6,6351.9,5167.7,4630.9,5002.7z M5459.8,3431.4c312.7-80.6,562.1-222.6,809.6-456.6c207.2-197.6,364.5-433.6,454.7-679.2c92.1-247.5,105.5-339.6,105.5-658.1c-1.9-278.2-5.8-324.2-53.7-479.6c-101.7-341.5-255.2-596.7-496.9-828.8c-239.8-230.2-460.4-358.8-790.4-458.5c-157.3-48-199.5-53.7-489.2-53.7c-289.7,0-331.9,5.8-489.2,53.7c-347.3,103.6-602.4,259-838.4,506.5c-234.1,245.6-374.1,493.1-458.5,809.6c-63.3,236-63.3,684.9,0,920.9c193.8,717.5,788.5,1250.9,1527.2,1367.9C4886.1,3500.5,5298.6,3473.7,5459.8,3431.4z" transform="matrix(.1 0 0 -.1 0 512)" fill="#388e3c" class="color000 svgShape"></path></svg></g></svg>